<?xml version="1.0" encoding="UTF-8"?>
<svg xmlns="http://www.w3.org/2000/svg" xmlns:xlink="http://www.w3.org/1999/xlink" viewBox="0 0 402.94 399.64">
  <defs>
    <style>
      .cls-1 {
        fill: url(#linear-gradient-15);
      }

      .cls-2 {
        fill: url(#linear-gradient-13);
      }

      .cls-3 {
        fill: url(#linear-gradient-2);
      }

      .cls-4 {
        fill: url(#linear-gradient-10);
      }

      .cls-5 {
        fill: url(#linear-gradient-12);
      }

      .cls-6 {
        fill: url(#linear-gradient-4);
      }

      .cls-7 {
        fill: url(#linear-gradient-3);
      }

      .cls-8 {
        fill: url(#linear-gradient-5);
      }

      .cls-9 {
        fill: url(#linear-gradient-8);
      }

      .cls-10 {
        fill: url(#linear-gradient-14);
      }

      .cls-11 {
        fill: url(#linear-gradient-7);
      }

      .cls-12 {
        fill: url(#linear-gradient-9);
      }

      .cls-13 {
        fill: #f3e6d7;
      }

      .cls-14 {
        fill: url(#linear-gradient-11);
      }

      .cls-15 {
        fill: url(#linear-gradient-6);
      }

      .cls-16 {
        fill: #593e28;
      }

      .cls-17 {
        fill: url(#linear-gradient);
      }
    </style>
    <linearGradient id="linear-gradient" x1="77.72" y1="186.68" x2="99.95" y2="186.68" gradientUnits="userSpaceOnUse">
      <stop offset="0" stop-color="#cf8f5a"/>
      <stop offset=".46" stop-color="#d6985b"/>
      <stop offset="1" stop-color="#8d613b"/>
    </linearGradient>
    <linearGradient id="linear-gradient-2" x1="70.52" y1="122.04" x2="107.15" y2="122.04" xlink:href="#linear-gradient"/>
    <linearGradient id="linear-gradient-3" x1="75.2" y1="80.42" x2="102.48" y2="80.42" xlink:href="#linear-gradient"/>
    <linearGradient id="linear-gradient-4" x1="135.63" x2="157.87" xlink:href="#linear-gradient"/>
    <linearGradient id="linear-gradient-5" x1="128.43" y1="122.04" x2="165.07" y2="122.04" xlink:href="#linear-gradient"/>
    <linearGradient id="linear-gradient-6" x1="133.12" y1="80.42" x2="160.39" y2="80.42" xlink:href="#linear-gradient"/>
    <linearGradient id="linear-gradient-7" x1="190.59" x2="212.82" xlink:href="#linear-gradient"/>
    <linearGradient id="linear-gradient-8" x1="183.39" y1="122.04" x2="220.02" y2="122.04" xlink:href="#linear-gradient"/>
    <linearGradient id="linear-gradient-9" x1="188.07" y1="80.42" x2="215.35" y2="80.42" xlink:href="#linear-gradient"/>
    <linearGradient id="linear-gradient-10" x1="247.83" x2="270.07" xlink:href="#linear-gradient"/>
    <linearGradient id="linear-gradient-11" x1="240.63" y1="122.04" x2="277.26" y2="122.04" xlink:href="#linear-gradient"/>
    <linearGradient id="linear-gradient-12" x1="245.31" y1="80.42" x2="272.59" y2="80.42" xlink:href="#linear-gradient"/>
    <linearGradient id="linear-gradient-13" x1="305.24" x2="327.48" xlink:href="#linear-gradient"/>
    <linearGradient id="linear-gradient-14" x1="298.04" y1="122.04" x2="334.68" y2="122.04" xlink:href="#linear-gradient"/>
    <linearGradient id="linear-gradient-15" x1="302.73" y1="80.42" x2="330" y2="80.42" xlink:href="#linear-gradient"/>
  </defs>
  <g id="Layer_2" data-name="Layer 2">
    <rect class="cls-13" width="402.94" height="399.64"/>
  </g>
  <g id="Layer_1" data-name="Layer 1">
    <g>
      <g>
        <g>
          <g>
            <path class="cls-17" d="M77.72,132.08l4.07,105.9c.07,1.85,1.57,3.3,3.41,3.3h7.27c1.84,0,3.35-1.45,3.41-3.3l4.07-105.91c-3.89.22-7.71.33-11.45.33s-7.28-.11-10.78-.32Z"/>
            <path class="cls-3" d="M106.38,114.91h-35.08c-.51.84-.78,1.79-.78,2.78v5.53c0,1.47.57,2.85,1.62,3.9,1.03,1.04,2.41,1.61,3.89,1.61.02,0,.04,0,.06,0,.02,0,.04,0,.06,0,7.98.57,16.52.57,25.39,0,.02,0,.03,0,.05,0,.02,0,.04,0,.06,0,3.04,0,5.51-2.47,5.51-5.51v-5.53c0-.99-.28-1.95-.77-2.78Z"/>
            <path class="cls-7" d="M75.2,111.67h27.28c-1.92-1.53-3.99-4.08-5.21-8.37-1.34-4.7.13-10.64,1.84-17.52,2.01-8.12,4.29-17.32,1.92-25.66-1.32-4.65-3.66-7.9-6.96-9.66-1.61-.87-3.42-1.3-5.23-1.3s-3.61.43-5.23,1.3c-3.3,1.75-5.64,5.01-6.96,9.65-2.37,8.34-.1,17.54,1.92,25.67,1.71,6.87,3.18,12.81,1.84,17.52-1.22,4.29-3.28,6.85-5.2,8.37Z"/>
          </g>
          <path class="cls-16" d="M105.74,109.96c-2.48-1.35-4.33-3.97-5.36-7.56-1.1-3.86.34-9.68,1.88-15.84,2.11-8.51,4.5-18.16,1.9-27.33-1.57-5.53-4.45-9.44-8.56-11.63-4.17-2.22-9.35-2.23-13.52,0-4.11,2.19-6.99,6.1-8.56,11.62-2.6,9.17-.21,18.82,1.9,27.34,1.54,6.16,2.97,11.98,1.88,15.84-1.31,4.54-3.62,6.62-5.34,7.56-1.12.6-2.06,1.42-2.8,2.37-.02.03-.04.06-.06.09-1.15,1.51-1.81,3.34-1.81,5.27v5.53c0,2.33.91,4.52,2.56,6.19,1.28,1.28,2.88,2.12,4.62,2.42l4.08,106.28c.14,3.59,3.06,6.41,6.66,6.41h7.27c3.59,0,6.51-2.81,6.66-6.41l4.08-106.28c4.08-.73,7.19-4.32,7.19-8.61v-5.53c0-3.2-1.78-6.17-4.65-7.73ZM80.4,103.3c1.34-4.7-.13-10.64-1.84-17.52-2.01-8.12-4.29-17.32-1.92-25.67,1.32-4.64,3.66-7.89,6.96-9.65,1.62-.87,3.42-1.3,5.23-1.3s3.62.43,5.23,1.3c3.3,1.75,5.64,5.01,6.96,9.66,2.37,8.33.1,17.53-1.92,25.66-1.71,6.87-3.18,12.81-1.84,17.52,1.22,4.29,3.29,6.85,5.21,8.37h-27.28c1.92-1.53,3.98-4.08,5.2-8.37ZM95.88,237.98c-.07,1.85-1.57,3.3-3.41,3.3h-7.27c-1.84,0-3.35-1.45-3.41-3.3l-4.07-105.9c3.5.21,7.09.32,10.78.32s7.56-.11,11.45-.33l-4.07,105.91ZM107.15,123.23c0,3.04-2.47,5.51-5.51,5.51-.02,0-.04,0-.06,0-.02,0-.03,0-.05,0-8.87.57-17.41.57-25.39,0-.02,0-.04,0-.06,0-.02,0-.04,0-.06,0-1.48,0-2.86-.57-3.89-1.61-1.05-1.05-1.62-2.43-1.62-3.9v-5.53c0-.99.28-1.95.78-2.78h35.08c.5.84.77,1.79.77,2.78v5.53Z"/>
          <g>
            <path class="cls-16" d="M80.14,133.36c1.01,8.93,1.24,17.88.68,26.85-1.01-8.93-1.23-17.88-.68-26.85h0Z"/>
            <path class="cls-16" d="M83.45,133.36c.78,8.79.79,17.6,0,26.39-.79-8.79-.78-17.6,0-26.39h0Z"/>
            <path class="cls-16" d="M89.51,133.36c.78,9.28.79,18.57,0,27.85-.79-9.28-.78-18.57,0-27.85h0Z"/>
            <path class="cls-16" d="M86.77,150.54c.78,7.24.79,14.49,0,21.73-.79-7.24-.78-14.49,0-21.73h0Z"/>
            <path class="cls-16" d="M83.45,162.66c.9,6.25,1.02,12.54.35,18.82-.91-6.25-1.02-12.54-.35-18.82h0Z"/>
            <path class="cls-16" d="M94.02,133.36c.78,5.58.79,11.18,0,16.76-.79-5.58-.78-11.18,0-16.76h0Z"/>
            <path class="cls-16" d="M96.77,133.91c.78,5.4.79,10.81,0,16.21-.79-5.4-.78-10.81,0-16.21h0Z"/>
            <path class="cls-16" d="M94.41,154.32c.78,6.78.79,13.58,0,20.36-.79-6.78-.78-13.58,0-20.36h0Z"/>
            <path class="cls-16" d="M90.15,164.92c.78,3.68.79,7.37,0,11.05-.79-3.68-.78-7.37,0-11.05h0Z"/>
            <path class="cls-16" d="M89.51,178.67c.83,20.44.9,41.14.2,61.58-.84-20.44-.9-41.14-.2-61.58h0Z"/>
            <path class="cls-16" d="M92.28,204.13c.83,11.83.91,23.77.17,35.61-.85-11.84-.88-23.77-.17-35.61h0Z"/>
            <path class="cls-16" d="M94.08,195.04c.78,9.76.79,19.52,0,29.28-.79-9.76-.78-19.52,0-29.28h0Z"/>
            <path class="cls-16" d="M83.8,184.39c.9,18.44,1.04,37.13.41,55.58-.91-18.44-1.04-37.13-.41-55.58h0Z"/>
            <path class="cls-16" d="M86.06,195.55c.78,8.02.79,16.04,0,24.06-.79-8.02-.78-16.04,0-24.06h0Z"/>
            <path class="cls-16" d="M87.12,223.98c.78,5.25.79,10.51,0,15.76-.79-5.25-.78-10.51,0-15.76h0Z"/>
            <path class="cls-16" d="M94.02,177.71c.8,5.01.83,10.04.06,15.06-.81-5.01-.82-10.04-.06-15.06h0Z"/>
            <path class="cls-16" d="M87.23,56.15c.78,4.79.79,9.6,0,14.39-.79-4.79-.78-9.6,0-14.39h0Z"/>
            <path class="cls-16" d="M92.79,56.15c.78,4.45.79,8.92,0,13.38-.79-4.45-.78-8.92,0-13.38h0Z"/>
            <path class="cls-16" d="M98.09,59.01c.78,4.06.79,8.14,0,12.2-.79-4.06-.78-8.14,0-12.2h0Z"/>
            <path class="cls-16" d="M96.66,76c-.17,9.25-1.12,18.43-2.86,27.51.17-9.25,1.13-18.42,2.86-27.51h0Z"/>
            <path class="cls-16" d="M92.45,76c.45,5.85.12,11.66-1.01,17.41-.45-5.85-.11-11.66,1.01-17.41h0Z"/>
            <path class="cls-16" d="M91.44,97.71c.61,2.68.45,5.33-.5,7.91-.62-2.68-.44-5.33.5-7.91h0Z"/>
            <path class="cls-16" d="M86.73,76c.78,5.32.79,10.66,0,15.98-.79-5.32-.78-10.66,0-15.98h0Z"/>
            <path class="cls-16" d="M86.73,95.69c.42,3.33.71,6.6,0,9.93-.87-3.23-1.15-6.75,0-9.93h0Z"/>
            <path class="cls-16" d="M81.93,64.39c1.06,7.62,1.35,15.29.84,22.97-1.07-7.62-1.34-15.29-.84-22.97h0Z"/>
            <path class="cls-16" d="M79.07,63.34c.78,2.39.79,4.81,0,7.19-.79-2.39-.78-4.81,0-7.19h0Z"/>
            <path class="cls-16" d="M79.49,75.33c1.14,2.25,1.51,4.66,1.09,7.15-1.14-2.25-1.5-4.66-1.09-7.15h0Z"/>
            <path class="cls-16" d="M82.77,93.84c.78,2.43.79,4.89,0,7.32-.79-2.43-.78-4.89,0-7.32h0Z"/>
            <path class="cls-16" d="M72.26,118.32c4.05-.78,8.12-.79,12.17,0-4.05.79-8.12.78-12.17,0h0Z"/>
            <path class="cls-16" d="M98.11,118.04c2.31-.78,4.65-.79,6.95,0-2.31.79-4.65.78-6.95,0h0Z"/>
            <path class="cls-16" d="M82.77,123.36c7.32-.78,14.64-.79,21.96,0-7.32.79-14.64.78-21.96,0h0Z"/>
            <path class="cls-16" d="M85.49,120c4.2-.78,8.42-.79,12.62,0-4.2.79-8.42.78-12.62,0h0Z"/>
            <path class="cls-16" d="M71.19,122.69c2.72-.78,5.47-.79,8.19,0-2.72.79-5.47.78-8.19,0h0Z"/>
            <path class="cls-16" d="M73.16,125.55c2.78-.78,5.58-.79,8.36,0-2.78.79-5.58.78-8.36,0h0Z"/>
          </g>
        </g>
        <g>
          <g>
            <path class="cls-6" d="M135.63,132.08l4.07,105.9c.07,1.85,1.57,3.3,3.41,3.3h7.27c1.84,0,3.35-1.45,3.41-3.3l4.07-105.91c-3.89.22-7.71.33-11.45.33s-7.28-.11-10.78-.32Z"/>
            <path class="cls-8" d="M164.29,114.91h-35.08c-.51.84-.78,1.79-.78,2.78v5.53c0,1.47.57,2.85,1.62,3.9,1.03,1.04,2.41,1.61,3.89,1.61.02,0,.04,0,.06,0,.02,0,.04,0,.06,0,7.98.57,16.52.57,25.39,0,.02,0,.03,0,.05,0,.02,0,.04,0,.06,0,3.04,0,5.51-2.47,5.51-5.51v-5.53c0-.99-.28-1.95-.77-2.78Z"/>
            <path class="cls-15" d="M133.12,111.67h27.28c-1.92-1.53-3.99-4.08-5.21-8.37-1.34-4.7.13-10.64,1.84-17.52,2.01-8.12,4.29-17.32,1.92-25.66-1.32-4.65-3.66-7.9-6.96-9.66-1.61-.87-3.42-1.3-5.23-1.3s-3.61.43-5.23,1.3c-3.3,1.75-5.64,5.01-6.96,9.65-2.37,8.34-.1,17.54,1.92,25.67,1.71,6.87,3.18,12.81,1.84,17.52-1.22,4.29-3.28,6.85-5.2,8.37Z"/>
          </g>
          <path class="cls-16" d="M163.65,109.96c-2.48-1.35-4.33-3.97-5.36-7.56-1.1-3.86.34-9.68,1.88-15.84,2.11-8.51,4.5-18.16,1.9-27.33-1.57-5.53-4.45-9.44-8.56-11.63-4.17-2.22-9.35-2.23-13.52,0-4.11,2.19-6.99,6.1-8.56,11.62-2.6,9.17-.21,18.82,1.9,27.34,1.54,6.16,2.97,11.98,1.88,15.84-1.31,4.54-3.62,6.62-5.34,7.56-1.12.6-2.06,1.42-2.8,2.37-.02.03-.04.06-.06.09-1.15,1.51-1.81,3.34-1.81,5.27v5.53c0,2.33.91,4.52,2.56,6.19,1.28,1.28,2.88,2.12,4.62,2.42l4.08,106.28c.14,3.59,3.06,6.41,6.66,6.41h7.27c3.59,0,6.51-2.81,6.66-6.41l4.08-106.28c4.08-.73,7.19-4.32,7.19-8.61v-5.53c0-3.2-1.78-6.17-4.65-7.73ZM138.31,103.3c1.34-4.7-.13-10.64-1.84-17.52-2.01-8.12-4.29-17.32-1.92-25.67,1.32-4.64,3.66-7.89,6.96-9.65,1.62-.87,3.42-1.3,5.23-1.3s3.62.43,5.23,1.3c3.3,1.75,5.64,5.01,6.96,9.66,2.37,8.33.1,17.53-1.92,25.66-1.71,6.87-3.18,12.81-1.84,17.52,1.22,4.29,3.29,6.85,5.21,8.37h-27.28c1.92-1.53,3.98-4.08,5.2-8.37ZM153.8,237.98c-.07,1.85-1.57,3.3-3.41,3.3h-7.27c-1.84,0-3.35-1.45-3.41-3.3l-4.07-105.9c3.5.21,7.09.32,10.78.32s7.56-.11,11.45-.33l-4.07,105.91ZM165.07,123.23c0,3.04-2.47,5.51-5.51,5.51-.02,0-.04,0-.06,0-.02,0-.03,0-.05,0-8.87.57-17.41.57-25.39,0-.02,0-.04,0-.06,0-.02,0-.04,0-.06,0-1.48,0-2.86-.57-3.89-1.61-1.05-1.05-1.62-2.43-1.62-3.9v-5.53c0-.99.28-1.95.78-2.78h35.08c.5.84.77,1.79.77,2.78v5.53Z"/>
          <g>
            <path class="cls-16" d="M138.06,133.36c1.01,8.93,1.24,17.88.68,26.85-1.01-8.93-1.23-17.88-.68-26.85h0Z"/>
            <path class="cls-16" d="M141.36,133.36c.78,8.79.79,17.6,0,26.39-.79-8.79-.78-17.6,0-26.39h0Z"/>
            <path class="cls-16" d="M147.42,133.36c.78,9.28.79,18.57,0,27.85-.79-9.28-.78-18.57,0-27.85h0Z"/>
            <path class="cls-16" d="M144.68,150.54c.78,7.24.79,14.49,0,21.73-.79-7.24-.78-14.49,0-21.73h0Z"/>
            <path class="cls-16" d="M141.36,162.66c.9,6.25,1.02,12.54.35,18.82-.91-6.25-1.02-12.54-.35-18.82h0Z"/>
            <path class="cls-16" d="M151.93,133.36c.78,5.58.79,11.18,0,16.76-.79-5.58-.78-11.18,0-16.76h0Z"/>
            <path class="cls-16" d="M154.68,133.91c.78,5.4.79,10.81,0,16.21-.79-5.4-.78-10.81,0-16.21h0Z"/>
            <path class="cls-16" d="M152.33,154.32c.78,6.78.79,13.58,0,20.36-.79-6.78-.78-13.58,0-20.36h0Z"/>
            <path class="cls-16" d="M148.06,164.92c.78,3.68.79,7.37,0,11.05-.79-3.68-.78-7.37,0-11.05h0Z"/>
            <path class="cls-16" d="M147.42,178.67c.83,20.44.9,41.14.2,61.58-.84-20.44-.9-41.14-.2-61.58h0Z"/>
            <path class="cls-16" d="M150.19,204.13c.83,11.83.91,23.77.17,35.61-.85-11.84-.88-23.77-.17-35.61h0Z"/>
            <path class="cls-16" d="M151.99,195.04c.78,9.76.79,19.52,0,29.28-.79-9.76-.78-19.52,0-29.28h0Z"/>
            <path class="cls-16" d="M141.71,184.39c.9,18.44,1.04,37.13.41,55.58-.91-18.44-1.04-37.13-.41-55.58h0Z"/>
            <path class="cls-16" d="M143.97,195.55c.78,8.02.79,16.04,0,24.06-.79-8.02-.78-16.04,0-24.06h0Z"/>
            <path class="cls-16" d="M145.03,223.98c.78,5.25.79,10.51,0,15.76-.79-5.25-.78-10.51,0-15.76h0Z"/>
            <path class="cls-16" d="M151.93,177.71c.8,5.01.83,10.04.06,15.06-.81-5.01-.82-10.04-.06-15.06h0Z"/>
            <path class="cls-16" d="M145.15,56.15c.78,4.79.79,9.6,0,14.39-.79-4.79-.78-9.6,0-14.39h0Z"/>
            <path class="cls-16" d="M150.7,56.15c.78,4.45.79,8.92,0,13.38-.79-4.45-.78-8.92,0-13.38h0Z"/>
            <path class="cls-16" d="M156,59.01c.78,4.06.79,8.14,0,12.2-.79-4.06-.78-8.14,0-12.2h0Z"/>
            <path class="cls-16" d="M154.57,76c-.17,9.25-1.12,18.43-2.86,27.51.17-9.25,1.13-18.42,2.86-27.51h0Z"/>
            <path class="cls-16" d="M150.36,76c.45,5.85.12,11.66-1.01,17.41-.45-5.85-.11-11.66,1.01-17.41h0Z"/>
            <path class="cls-16" d="M149.35,97.71c.61,2.68.45,5.33-.5,7.91-.62-2.68-.44-5.33.5-7.91h0Z"/>
            <path class="cls-16" d="M144.64,76c.78,5.32.79,10.66,0,15.98-.79-5.32-.78-10.66,0-15.98h0Z"/>
            <path class="cls-16" d="M144.64,95.69c.42,3.33.71,6.6,0,9.93-.87-3.23-1.15-6.75,0-9.93h0Z"/>
            <path class="cls-16" d="M139.85,64.39c1.06,7.62,1.35,15.29.84,22.97-1.07-7.62-1.34-15.29-.84-22.97h0Z"/>
            <path class="cls-16" d="M136.99,63.34c.78,2.39.79,4.81,0,7.19-.79-2.39-.78-4.81,0-7.19h0Z"/>
            <path class="cls-16" d="M137.41,75.33c1.14,2.25,1.51,4.66,1.09,7.15-1.14-2.25-1.5-4.66-1.09-7.15h0Z"/>
            <path class="cls-16" d="M140.69,93.84c.78,2.43.79,4.89,0,7.32-.79-2.43-.78-4.89,0-7.32h0Z"/>
            <path class="cls-16" d="M130.17,118.32c4.05-.78,8.12-.79,12.17,0-4.05.79-8.12.78-12.17,0h0Z"/>
            <path class="cls-16" d="M156.03,118.04c2.31-.78,4.65-.79,6.95,0-2.31.79-4.65.78-6.95,0h0Z"/>
            <path class="cls-16" d="M140.69,123.36c7.32-.78,14.64-.79,21.96,0-7.32.79-14.64.78-21.96,0h0Z"/>
            <path class="cls-16" d="M143.41,120c4.2-.78,8.42-.79,12.62,0-4.2.79-8.42.78-12.62,0h0Z"/>
            <path class="cls-16" d="M129.11,122.69c2.72-.78,5.47-.79,8.19,0-2.72.79-5.47.78-8.19,0h0Z"/>
            <path class="cls-16" d="M131.07,125.55c2.78-.78,5.58-.79,8.36,0-2.78.79-5.58.78-8.36,0h0Z"/>
            <path class="cls-16" d="M148.23,126.17c3.84-.78,7.71-.79,11.55,0-3.84.79-7.71.78-11.55,0h0Z"/>
          </g>
        </g>
        <g>
          <g>
            <path class="cls-11" d="M190.59,132.08l4.07,105.9c.07,1.85,1.57,3.3,3.41,3.3h7.27c1.84,0,3.35-1.45,3.41-3.3l4.07-105.91c-3.89.22-7.71.33-11.45.33s-7.28-.11-10.78-.32Z"/>
            <path class="cls-9" d="M219.25,114.91h-35.08c-.51.84-.78,1.79-.78,2.78v5.53c0,1.47.57,2.85,1.62,3.9,1.03,1.04,2.41,1.61,3.89,1.61.02,0,.04,0,.06,0,.02,0,.04,0,.06,0,7.98.57,16.52.57,25.39,0,.02,0,.03,0,.05,0,.02,0,.04,0,.06,0,3.04,0,5.51-2.47,5.51-5.51v-5.53c0-.99-.28-1.95-.77-2.78Z"/>
            <path class="cls-12" d="M188.07,111.67h27.28c-1.92-1.53-3.99-4.08-5.21-8.37-1.34-4.7.13-10.64,1.84-17.52,2.01-8.12,4.29-17.32,1.92-25.66-1.32-4.65-3.66-7.9-6.96-9.66-1.61-.87-3.42-1.3-5.23-1.3s-3.61.43-5.23,1.3c-3.3,1.75-5.64,5.01-6.96,9.65-2.37,8.34-.1,17.54,1.92,25.67,1.71,6.87,3.18,12.81,1.84,17.52-1.22,4.29-3.28,6.85-5.2,8.37Z"/>
          </g>
          <path class="cls-16" d="M218.61,109.96c-2.48-1.35-4.33-3.97-5.36-7.56-1.1-3.86.34-9.68,1.88-15.84,2.11-8.51,4.5-18.16,1.9-27.33-1.57-5.53-4.45-9.44-8.56-11.63-4.17-2.22-9.35-2.23-13.52,0-4.11,2.19-6.99,6.1-8.56,11.62-2.6,9.17-.21,18.82,1.9,27.34,1.54,6.16,2.97,11.98,1.88,15.84-1.31,4.54-3.62,6.62-5.34,7.56-1.12.6-2.06,1.42-2.8,2.37-.02.03-.04.06-.06.09-1.15,1.51-1.81,3.34-1.81,5.27v5.53c0,2.33.91,4.52,2.56,6.19,1.28,1.28,2.88,2.12,4.62,2.42l4.08,106.28c.14,3.59,3.06,6.41,6.66,6.41h7.27c3.59,0,6.51-2.81,6.66-6.41l4.08-106.28c4.08-.73,7.19-4.32,7.19-8.61v-5.53c0-3.2-1.78-6.17-4.65-7.73ZM193.26,103.3c1.34-4.7-.13-10.64-1.84-17.52-2.01-8.12-4.29-17.32-1.92-25.67,1.32-4.64,3.66-7.89,6.96-9.65,1.62-.87,3.42-1.3,5.23-1.3s3.62.43,5.23,1.3c3.3,1.75,5.64,5.01,6.96,9.66,2.37,8.33.1,17.53-1.92,25.66-1.71,6.87-3.18,12.81-1.84,17.52,1.22,4.29,3.29,6.85,5.21,8.37h-27.28c1.92-1.53,3.98-4.08,5.2-8.37ZM208.75,237.98c-.07,1.85-1.57,3.3-3.41,3.3h-7.27c-1.84,0-3.35-1.45-3.41-3.3l-4.07-105.9c3.5.21,7.09.32,10.78.32s7.56-.11,11.45-.33l-4.07,105.91ZM220.02,123.23c0,3.04-2.47,5.51-5.51,5.51-.02,0-.04,0-.06,0-.02,0-.03,0-.05,0-8.87.57-17.41.57-25.39,0-.02,0-.04,0-.06,0-.02,0-.04,0-.06,0-1.48,0-2.86-.57-3.89-1.61-1.05-1.05-1.62-2.43-1.62-3.9v-5.53c0-.99.28-1.95.78-2.78h35.08c.5.84.77,1.79.77,2.78v5.53Z"/>
          <g>
            <path class="cls-16" d="M193.01,133.36c1.01,8.93,1.24,17.88.68,26.85-1.01-8.93-1.23-17.88-.68-26.85h0Z"/>
            <path class="cls-16" d="M196.31,133.36c.78,8.79.79,17.6,0,26.39-.79-8.79-.78-17.6,0-26.39h0Z"/>
            <path class="cls-16" d="M202.37,133.36c.78,9.28.79,18.57,0,27.85-.79-9.28-.78-18.57,0-27.85h0Z"/>
            <path class="cls-16" d="M199.63,150.54c.78,7.24.79,14.49,0,21.73-.79-7.24-.78-14.49,0-21.73h0Z"/>
            <path class="cls-16" d="M196.31,162.66c.9,6.25,1.02,12.54.35,18.82-.91-6.25-1.02-12.54-.35-18.82h0Z"/>
            <path class="cls-16" d="M206.89,133.36c.78,5.58.79,11.18,0,16.76-.79-5.58-.78-11.18,0-16.76h0Z"/>
            <path class="cls-16" d="M209.63,133.91c.78,5.4.79,10.81,0,16.21-.79-5.4-.78-10.81,0-16.21h0Z"/>
            <path class="cls-16" d="M207.28,154.32c.78,6.78.79,13.58,0,20.36-.79-6.78-.78-13.58,0-20.36h0Z"/>
            <path class="cls-16" d="M203.02,164.92c.78,3.68.79,7.37,0,11.05-.79-3.68-.78-7.37,0-11.05h0Z"/>
            <path class="cls-16" d="M202.37,178.67c.83,20.44.9,41.14.2,61.58-.84-20.44-.9-41.14-.2-61.58h0Z"/>
            <path class="cls-16" d="M205.15,204.13c.83,11.83.91,23.77.17,35.61-.85-11.84-.88-23.77-.17-35.61h0Z"/>
            <path class="cls-16" d="M206.94,195.04c.78,9.76.79,19.52,0,29.28-.79-9.76-.78-19.52,0-29.28h0Z"/>
            <path class="cls-16" d="M196.66,184.39c.9,18.44,1.04,37.13.41,55.58-.91-18.44-1.04-37.13-.41-55.58h0Z"/>
            <path class="cls-16" d="M198.92,195.55c.78,8.02.79,16.04,0,24.06-.79-8.02-.78-16.04,0-24.06h0Z"/>
            <path class="cls-16" d="M199.99,223.98c.78,5.25.79,10.51,0,15.76-.79-5.25-.78-10.51,0-15.76h0Z"/>
            <path class="cls-16" d="M206.89,177.71c.8,5.01.83,10.04.06,15.06-.81-5.01-.82-10.04-.06-15.06h0Z"/>
            <path class="cls-16" d="M200.1,56.15c.78,4.79.79,9.6,0,14.39-.79-4.79-.78-9.6,0-14.39h0Z"/>
            <path class="cls-16" d="M205.65,56.15c.78,4.45.79,8.92,0,13.38-.79-4.45-.78-8.92,0-13.38h0Z"/>
            <path class="cls-16" d="M210.95,59.01c.78,4.06.79,8.14,0,12.2-.79-4.06-.78-8.14,0-12.2h0Z"/>
            <path class="cls-16" d="M209.52,76c-.17,9.25-1.12,18.43-2.86,27.51.17-9.25,1.13-18.42,2.86-27.51h0Z"/>
            <path class="cls-16" d="M205.32,76c.45,5.85.12,11.66-1.01,17.41-.45-5.85-.11-11.66,1.01-17.41h0Z"/>
            <path class="cls-16" d="M204.31,97.71c.61,2.68.45,5.33-.5,7.91-.62-2.68-.44-5.33.5-7.91h0Z"/>
            <path class="cls-16" d="M199.59,76c.78,5.32.79,10.66,0,15.98-.79-5.32-.78-10.66,0-15.98h0Z"/>
            <path class="cls-16" d="M199.59,95.69c.42,3.33.71,6.6,0,9.93-.87-3.23-1.15-6.75,0-9.93h0Z"/>
            <path class="cls-16" d="M194.8,64.39c1.06,7.62,1.35,15.29.84,22.97-1.07-7.62-1.34-15.29-.84-22.97h0Z"/>
            <path class="cls-16" d="M191.94,63.34c.78,2.39.79,4.81,0,7.19-.79-2.39-.78-4.81,0-7.19h0Z"/>
            <path class="cls-16" d="M192.36,75.33c1.14,2.25,1.51,4.66,1.09,7.15-1.14-2.25-1.5-4.66-1.09-7.15h0Z"/>
            <path class="cls-16" d="M195.64,93.84c.78,2.43.79,4.89,0,7.32-.79-2.43-.78-4.89,0-7.32h0Z"/>
            <path class="cls-16" d="M185.12,118.32c4.05-.78,8.12-.79,12.17,0-4.05.79-8.12.78-12.17,0h0Z"/>
            <path class="cls-16" d="M210.98,118.04c2.31-.78,4.65-.79,6.95,0-2.31.79-4.65.78-6.95,0h0Z"/>
            <path class="cls-16" d="M195.64,123.36c7.32-.78,14.64-.79,21.96,0-7.32.79-14.64.78-21.96,0h0Z"/>
            <path class="cls-16" d="M198.36,120c4.2-.78,8.42-.79,12.62,0-4.2.79-8.42.78-12.62,0h0Z"/>
            <path class="cls-16" d="M184.06,122.69c2.72-.78,5.47-.79,8.19,0-2.72.79-5.47.78-8.19,0h0Z"/>
            <path class="cls-16" d="M186.02,125.55c2.78-.78,5.58-.79,8.36,0-2.78.79-5.58.78-8.36,0h0Z"/>
            <path class="cls-16" d="M203.18,126.17c3.84-.78,7.71-.79,11.55,0-3.84.79-7.71.78-11.55,0h0Z"/>
          </g>
        </g>
        <g>
          <g>
            <path class="cls-4" d="M247.83,132.08l4.07,105.9c.07,1.85,1.57,3.3,3.41,3.3h7.27c1.84,0,3.35-1.45,3.41-3.3l4.07-105.91c-3.89.22-7.71.33-11.45.33s-7.28-.11-10.78-.32Z"/>
            <path class="cls-14" d="M276.49,114.91h-35.08c-.51.84-.78,1.79-.78,2.78v5.53c0,1.47.57,2.85,1.62,3.9,1.03,1.04,2.41,1.61,3.89,1.61.02,0,.04,0,.06,0,.02,0,.04,0,.06,0,7.98.57,16.52.57,25.39,0,.02,0,.03,0,.05,0,.02,0,.04,0,.06,0,3.04,0,5.51-2.47,5.51-5.51v-5.53c0-.99-.28-1.95-.77-2.78Z"/>
            <path class="cls-5" d="M245.31,111.67h27.28c-1.92-1.53-3.99-4.08-5.21-8.37-1.34-4.7.13-10.64,1.84-17.52,2.01-8.12,4.29-17.32,1.92-25.66-1.32-4.65-3.66-7.9-6.96-9.66-1.61-.87-3.42-1.3-5.23-1.3s-3.61.43-5.23,1.3c-3.3,1.75-5.64,5.01-6.96,9.65-2.37,8.34-.1,17.54,1.92,25.67,1.71,6.87,3.18,12.81,1.84,17.52-1.22,4.29-3.28,6.85-5.2,8.37Z"/>
          </g>
          <path class="cls-16" d="M275.85,109.96c-2.48-1.35-4.33-3.97-5.36-7.56-1.1-3.86.34-9.68,1.88-15.84,2.11-8.51,4.5-18.16,1.9-27.33-1.57-5.53-4.45-9.44-8.56-11.63-4.17-2.22-9.35-2.23-13.52,0-4.11,2.19-6.99,6.1-8.56,11.62-2.6,9.17-.21,18.82,1.9,27.34,1.54,6.16,2.97,11.98,1.88,15.84-1.31,4.54-3.62,6.62-5.34,7.56-1.12.6-2.06,1.42-2.8,2.37-.02.03-.04.06-.06.09-1.15,1.51-1.81,3.34-1.81,5.27v5.53c0,2.33.91,4.52,2.56,6.19,1.28,1.28,2.88,2.12,4.62,2.42l4.08,106.28c.14,3.59,3.06,6.41,6.66,6.41h7.27c3.59,0,6.51-2.81,6.66-6.41l4.08-106.28c4.08-.73,7.19-4.32,7.19-8.61v-5.53c0-3.2-1.78-6.17-4.65-7.73ZM250.51,103.3c1.34-4.7-.13-10.64-1.84-17.52-2.01-8.12-4.29-17.32-1.92-25.67,1.32-4.64,3.66-7.89,6.96-9.65,1.62-.87,3.42-1.3,5.23-1.3s3.62.43,5.23,1.3c3.3,1.75,5.64,5.01,6.96,9.66,2.37,8.33.1,17.53-1.92,25.66-1.71,6.87-3.18,12.81-1.84,17.52,1.22,4.29,3.29,6.85,5.21,8.37h-27.28c1.92-1.53,3.98-4.08,5.2-8.37ZM265.99,237.98c-.07,1.85-1.57,3.3-3.41,3.3h-7.27c-1.84,0-3.35-1.45-3.41-3.3l-4.07-105.9c3.5.21,7.09.32,10.78.32s7.56-.11,11.45-.33l-4.07,105.91ZM277.26,123.23c0,3.04-2.47,5.51-5.51,5.51-.02,0-.04,0-.06,0-.02,0-.03,0-.05,0-8.87.57-17.41.57-25.39,0-.02,0-.04,0-.06,0-.02,0-.04,0-.06,0-1.48,0-2.86-.57-3.89-1.61-1.05-1.05-1.62-2.43-1.62-3.9v-5.53c0-.99.28-1.95.78-2.78h35.08c.5.84.77,1.79.77,2.78v5.53Z"/>
          <g>
            <path class="cls-16" d="M250.26,133.36c1.01,8.93,1.24,17.88.68,26.85-1.01-8.93-1.23-17.88-.68-26.85h0Z"/>
            <path class="cls-16" d="M253.56,133.36c.78,8.79.79,17.6,0,26.39-.79-8.79-.78-17.6,0-26.39h0Z"/>
            <path class="cls-16" d="M259.62,133.36c.78,9.28.79,18.57,0,27.85-.79-9.28-.78-18.57,0-27.85h0Z"/>
            <path class="cls-16" d="M256.88,150.54c.78,7.24.79,14.49,0,21.73-.79-7.24-.78-14.49,0-21.73h0Z"/>
            <path class="cls-16" d="M253.56,162.66c.9,6.25,1.02,12.54.35,18.82-.91-6.25-1.02-12.54-.35-18.82h0Z"/>
            <path class="cls-16" d="M264.13,133.36c.78,5.58.79,11.18,0,16.76-.79-5.58-.78-11.18,0-16.76h0Z"/>
            <path class="cls-16" d="M266.88,133.91c.78,5.4.79,10.81,0,16.21-.79-5.4-.78-10.81,0-16.21h0Z"/>
            <path class="cls-16" d="M264.52,154.32c.78,6.78.79,13.58,0,20.36-.79-6.78-.78-13.58,0-20.36h0Z"/>
            <path class="cls-16" d="M260.26,164.92c.78,3.68.79,7.37,0,11.05-.79-3.68-.78-7.37,0-11.05h0Z"/>
            <path class="cls-16" d="M259.62,178.67c.83,20.44.9,41.14.2,61.58-.84-20.44-.9-41.14-.2-61.58h0Z"/>
            <path class="cls-16" d="M262.39,204.13c.83,11.83.91,23.77.17,35.61-.85-11.84-.88-23.77-.17-35.61h0Z"/>
            <path class="cls-16" d="M264.19,195.04c.78,9.76.79,19.52,0,29.28-.79-9.76-.78-19.52,0-29.28h0Z"/>
            <path class="cls-16" d="M253.91,184.39c.9,18.44,1.04,37.13.41,55.58-.91-18.44-1.04-37.13-.41-55.58h0Z"/>
            <path class="cls-16" d="M256.17,195.55c.78,8.02.79,16.04,0,24.06-.79-8.02-.78-16.04,0-24.06h0Z"/>
            <path class="cls-16" d="M257.23,223.98c.78,5.25.79,10.51,0,15.76-.79-5.25-.78-10.51,0-15.76h0Z"/>
            <path class="cls-16" d="M264.13,177.71c.8,5.01.83,10.04.06,15.06-.81-5.01-.82-10.04-.06-15.06h0Z"/>
            <path class="cls-16" d="M257.34,56.15c.78,4.79.79,9.6,0,14.39-.79-4.79-.78-9.6,0-14.39h0Z"/>
            <path class="cls-16" d="M262.9,56.15c.78,4.45.79,8.92,0,13.38-.79-4.45-.78-8.92,0-13.38h0Z"/>
            <path class="cls-16" d="M268.2,59.01c.78,4.06.79,8.14,0,12.2-.79-4.06-.78-8.14,0-12.2h0Z"/>
            <path class="cls-16" d="M266.77,76c-.17,9.25-1.12,18.43-2.86,27.51.17-9.25,1.13-18.42,2.86-27.51h0Z"/>
            <path class="cls-16" d="M262.56,76c.45,5.85.12,11.66-1.01,17.41-.45-5.85-.11-11.66,1.01-17.41h0Z"/>
            <path class="cls-16" d="M261.55,97.71c.61,2.68.45,5.33-.5,7.91-.62-2.68-.44-5.33.5-7.91h0Z"/>
            <path class="cls-16" d="M256.84,76c.78,5.32.79,10.66,0,15.98-.79-5.32-.78-10.66,0-15.98h0Z"/>
            <path class="cls-16" d="M256.84,95.69c.42,3.33.71,6.6,0,9.93-.87-3.23-1.15-6.75,0-9.93h0Z"/>
            <path class="cls-16" d="M252.04,64.39c1.06,7.62,1.35,15.29.84,22.97-1.07-7.62-1.34-15.29-.84-22.97h0Z"/>
            <path class="cls-16" d="M249.18,63.34c.78,2.39.79,4.81,0,7.19-.79-2.39-.78-4.81,0-7.19h0Z"/>
            <path class="cls-16" d="M249.61,75.33c1.14,2.25,1.51,4.66,1.09,7.15-1.14-2.25-1.5-4.66-1.09-7.15h0Z"/>
            <path class="cls-16" d="M252.89,93.84c.78,2.43.79,4.89,0,7.32-.79-2.43-.78-4.89,0-7.32h0Z"/>
            <path class="cls-16" d="M242.37,118.32c4.05-.78,8.12-.79,12.17,0-4.05.79-8.12.78-12.17,0h0Z"/>
            <path class="cls-16" d="M268.23,118.04c2.31-.78,4.65-.79,6.95,0-2.31.79-4.65.78-6.95,0h0Z"/>
            <path class="cls-16" d="M252.89,123.36c7.32-.78,14.64-.79,21.96,0-7.32.79-14.64.78-21.96,0h0Z"/>
            <path class="cls-16" d="M255.61,120c4.2-.78,8.42-.79,12.62,0-4.2.79-8.42.78-12.62,0h0Z"/>
            <path class="cls-16" d="M241.3,122.69c2.72-.78,5.47-.79,8.19,0-2.72.79-5.47.78-8.19,0h0Z"/>
            <path class="cls-16" d="M243.27,125.55c2.78-.78,5.58-.79,8.36,0-2.78.79-5.58.78-8.36,0h0Z"/>
            <path class="cls-16" d="M260.43,126.17c3.84-.78,7.71-.79,11.55,0-3.84.79-7.71.78-11.55,0h0Z"/>
          </g>
        </g>
        <g>
          <g>
            <path class="cls-2" d="M305.24,132.08l4.07,105.9c.07,1.85,1.57,3.3,3.41,3.3h7.27c1.84,0,3.35-1.45,3.41-3.3l4.07-105.91c-3.89.22-7.71.33-11.45.33s-7.28-.11-10.78-.32Z"/>
            <path class="cls-10" d="M333.9,114.91h-35.08c-.51.84-.78,1.79-.78,2.78v5.53c0,1.47.57,2.85,1.62,3.9,1.03,1.04,2.41,1.61,3.89,1.61.02,0,.04,0,.06,0,.02,0,.04,0,.06,0,7.98.57,16.52.57,25.39,0,.02,0,.03,0,.05,0,.02,0,.04,0,.06,0,3.04,0,5.51-2.47,5.51-5.51v-5.53c0-.99-.28-1.95-.77-2.78Z"/>
            <path class="cls-1" d="M302.73,111.67h27.28c-1.92-1.53-3.99-4.08-5.21-8.37-1.34-4.7.13-10.64,1.84-17.52,2.01-8.12,4.29-17.32,1.92-25.66-1.32-4.65-3.66-7.9-6.96-9.66-1.61-.87-3.42-1.3-5.23-1.3s-3.61.43-5.23,1.3c-3.3,1.75-5.64,5.01-6.96,9.65-2.37,8.34-.1,17.54,1.92,25.67,1.71,6.87,3.18,12.81,1.84,17.52-1.22,4.29-3.28,6.85-5.2,8.37Z"/>
          </g>
          <path class="cls-16" d="M333.27,109.96c-2.48-1.35-4.33-3.97-5.36-7.56-1.1-3.86.34-9.68,1.88-15.84,2.11-8.51,4.5-18.16,1.9-27.33-1.57-5.53-4.45-9.44-8.56-11.63-4.17-2.22-9.35-2.23-13.52,0-4.11,2.19-6.99,6.1-8.56,11.62-2.6,9.17-.21,18.82,1.9,27.34,1.54,6.16,2.97,11.98,1.88,15.84-1.31,4.54-3.62,6.62-5.34,7.56-1.12.6-2.06,1.42-2.8,2.37-.02.03-.04.06-.06.09-1.15,1.51-1.81,3.34-1.81,5.27v5.53c0,2.33.91,4.52,2.56,6.19,1.28,1.28,2.88,2.12,4.62,2.42l4.08,106.28c.14,3.59,3.06,6.41,6.66,6.41h7.27c3.59,0,6.51-2.81,6.66-6.41l4.08-106.28c4.08-.73,7.19-4.32,7.19-8.61v-5.53c0-3.2-1.78-6.17-4.65-7.73ZM307.92,103.3c1.34-4.7-.13-10.64-1.84-17.52-2.01-8.12-4.29-17.32-1.92-25.67,1.32-4.64,3.66-7.89,6.96-9.65,1.62-.87,3.42-1.3,5.23-1.3s3.62.43,5.23,1.3c3.3,1.75,5.64,5.01,6.96,9.66,2.37,8.33.1,17.53-1.92,25.66-1.71,6.87-3.18,12.81-1.84,17.52,1.22,4.29,3.29,6.85,5.21,8.37h-27.28c1.92-1.53,3.98-4.08,5.2-8.37ZM323.41,237.98c-.07,1.85-1.57,3.3-3.41,3.3h-7.27c-1.84,0-3.35-1.45-3.41-3.3l-4.07-105.9c3.5.21,7.09.32,10.78.32s7.56-.11,11.45-.33l-4.07,105.91ZM334.68,123.23c0,3.04-2.47,5.51-5.51,5.51-.02,0-.04,0-.06,0-.02,0-.03,0-.05,0-8.87.57-17.41.57-25.39,0-.02,0-.04,0-.06,0-.02,0-.04,0-.06,0-1.48,0-2.86-.57-3.89-1.61-1.05-1.05-1.62-2.43-1.62-3.9v-5.53c0-.99.28-1.95.78-2.78h35.08c.5.84.77,1.79.77,2.78v5.53Z"/>
          <g>
            <path class="cls-16" d="M307.67,133.36c1.01,8.93,1.24,17.88.68,26.85-1.01-8.93-1.23-17.88-.68-26.85h0Z"/>
            <path class="cls-16" d="M310.97,133.36c.78,8.79.79,17.6,0,26.39-.79-8.79-.78-17.6,0-26.39h0Z"/>
            <path class="cls-16" d="M317.03,133.36c.78,9.28.79,18.57,0,27.85-.79-9.28-.78-18.57,0-27.85h0Z"/>
            <path class="cls-16" d="M314.29,150.54c.78,7.24.79,14.49,0,21.73-.79-7.24-.78-14.49,0-21.73h0Z"/>
            <path class="cls-16" d="M310.97,162.66c.9,6.25,1.02,12.54.35,18.82-.91-6.25-1.02-12.54-.35-18.82h0Z"/>
            <path class="cls-16" d="M321.54,133.36c.78,5.58.79,11.18,0,16.76-.79-5.58-.78-11.18,0-16.76h0Z"/>
            <path class="cls-16" d="M324.29,133.91c.78,5.4.79,10.81,0,16.21-.79-5.4-.78-10.81,0-16.21h0Z"/>
            <path class="cls-16" d="M321.94,154.32c.78,6.78.79,13.58,0,20.36-.79-6.78-.78-13.58,0-20.36h0Z"/>
            <path class="cls-16" d="M317.67,164.92c.78,3.68.79,7.37,0,11.05-.79-3.68-.78-7.37,0-11.05h0Z"/>
            <path class="cls-16" d="M317.03,178.67c.83,20.44.9,41.14.2,61.58-.84-20.44-.9-41.14-.2-61.58h0Z"/>
            <path class="cls-16" d="M319.8,204.13c.83,11.83.91,23.77.17,35.61-.85-11.84-.88-23.77-.17-35.61h0Z"/>
            <path class="cls-16" d="M321.6,195.04c.78,9.76.79,19.52,0,29.28-.79-9.76-.78-19.52,0-29.28h0Z"/>
            <path class="cls-16" d="M311.32,184.39c.9,18.44,1.04,37.13.41,55.58-.91-18.44-1.04-37.13-.41-55.58h0Z"/>
            <path class="cls-16" d="M313.58,195.55c.78,8.02.79,16.04,0,24.06-.79-8.02-.78-16.04,0-24.06h0Z"/>
            <path class="cls-16" d="M314.64,223.98c.78,5.25.79,10.51,0,15.76-.79-5.25-.78-10.51,0-15.76h0Z"/>
            <path class="cls-16" d="M321.54,177.71c.8,5.01.83,10.04.06,15.06-.81-5.01-.82-10.04-.06-15.06h0Z"/>
            <path class="cls-16" d="M314.76,56.15c.78,4.79.79,9.6,0,14.39-.79-4.79-.78-9.6,0-14.39h0Z"/>
            <path class="cls-16" d="M320.31,56.15c.78,4.45.79,8.92,0,13.38-.79-4.45-.78-8.92,0-13.38h0Z"/>
            <path class="cls-16" d="M325.61,59.01c.78,4.06.79,8.14,0,12.2-.79-4.06-.78-8.14,0-12.2h0Z"/>
            <path class="cls-16" d="M324.18,76c-.17,9.25-1.12,18.43-2.86,27.51.17-9.25,1.13-18.42,2.86-27.51h0Z"/>
            <path class="cls-16" d="M319.97,76c.45,5.85.12,11.66-1.01,17.41-.45-5.85-.11-11.66,1.01-17.41h0Z"/>
            <path class="cls-16" d="M318.96,97.71c.61,2.68.45,5.33-.5,7.91-.62-2.68-.44-5.33.5-7.91h0Z"/>
            <path class="cls-16" d="M314.25,76c.78,5.32.79,10.66,0,15.98-.79-5.32-.78-10.66,0-15.98h0Z"/>
            <path class="cls-16" d="M314.25,95.69c.42,3.33.71,6.6,0,9.93-.87-3.23-1.15-6.75,0-9.93h0Z"/>
            <path class="cls-16" d="M309.46,64.39c1.06,7.62,1.35,15.29.84,22.97-1.07-7.62-1.34-15.29-.84-22.97h0Z"/>
            <path class="cls-16" d="M306.6,63.34c.78,2.39.79,4.81,0,7.19-.79-2.39-.78-4.81,0-7.19h0Z"/>
            <path class="cls-16" d="M307.02,75.33c1.14,2.25,1.51,4.66,1.09,7.15-1.14-2.25-1.5-4.66-1.09-7.15h0Z"/>
            <path class="cls-16" d="M310.3,93.84c.78,2.43.79,4.89,0,7.32-.79-2.43-.78-4.89,0-7.32h0Z"/>
            <path class="cls-16" d="M299.78,118.32c4.05-.78,8.12-.79,12.17,0-4.05.79-8.12.78-12.17,0h0Z"/>
            <path class="cls-16" d="M325.64,118.04c2.31-.78,4.65-.79,6.95,0-2.31.79-4.65.78-6.95,0h0Z"/>
            <path class="cls-16" d="M310.3,123.36c7.32-.78,14.64-.79,21.96,0-7.32.79-14.64.78-21.96,0h0Z"/>
            <path class="cls-16" d="M313.02,120c4.2-.78,8.42-.79,12.62,0-4.2.79-8.42.78-12.62,0h0Z"/>
            <path class="cls-16" d="M298.72,122.69c2.72-.78,5.47-.79,8.19,0-2.72.79-5.47.78-8.19,0h0Z"/>
            <path class="cls-16" d="M300.68,125.55c2.78-.78,5.58-.79,8.36,0-2.78.79-5.58.78-8.36,0h0Z"/>
            <path class="cls-16" d="M317.84,126.17c3.84-.78,7.71-.79,11.55,0-3.84.79-7.71.78-11.55,0h0Z"/>
          </g>
        </g>
      </g>
      <g>
        <path class="cls-16" d="M106.72,262.94h-15.95c-.57,0-1.02.46-1.02,1.02v1.48c0,.57.46,1.02,1.02,1.02h.62c2.69,0,4.88,3.23,4.88,8.08v29.19s-32.01-40.8-32.01-40.8h-15.3c-.57,0-1.02.46-1.02,1.02v1.48c0,.57.46,1.02,1.02,1.02h0c3.45,0,6.25,2.8,6.25,6.25v40.21c0,3.11-2.52,7.73-5.62,7.73h0c-.57,0-1.02.46-1.02,1.02v2.45c0,.57.46,1.02,1.02,1.02h18.59c.57,0,1.02-.46,1.02-1.02v-2.45c0-.57-.46-1.02-1.02-1.02h-1.18c-3.11,0-5.62-2.52-5.62-5.62v-35.66l36.71,45.4c.19.24.49.38.8.38h1.96c.57,0,1.02-.46,1.02-1.02v-50.86c0-4.01,2.18-6.81,4.86-6.81h0c.57,0,1.02-.46,1.02-1.02v-1.48c0-.57-.46-1.02-1.02-1.02Z"/>
        <path class="cls-16" d="M177.98,320.89c-2.31,0-4.39-1.4-5.25-3.55l-21.45-53.32c-.27-.66-.9-1.09-1.61-1.09h-12.38c-.6,0-1.09.49-1.09,1.09v1.35c0,.6.49,1.09,1.09,1.09,1.65,0,2.8,1.64,2.24,3.19l-16.33,45.99c-.73,2.02-3.55,5.24-5.69,5.24-.66,0-1.2.54-1.2,1.2v1.88c0,.66.54,1.2,1.2,1.2h17.74c.66,0,1.2-.54,1.2-1.2v-1.88c0-.66-.54-1.2-1.2-1.2h-1.36c-2.97,0-5.04-2.95-4.03-5.75l3.95-10.89h21.94l4.5,11.07c1.08,2.66-.88,5.57-3.75,5.57h-1.62c-.73,0-1.31.59-1.31,1.31v1.64c0,.73.59,1.31,1.31,1.31h23.11c.73,0,1.31-.59,1.31-1.31v-1.64c0-.73-.59-1.31-1.31-1.31ZM135.99,298.23l8.15-22.48,9.15,22.48h-17.3Z"/>
        <path class="cls-16" d="M235.62,280.79h1.01c.8,0,1.45-.65,1.45-1.45v-11.35c0-1.17-.68-2.23-1.76-2.7-3.7-1.61-13.03-4.81-26.18-3.09-17.25,2.25-27.35,17.63-26.62,33.86.73,16.22,11.22,28.94,29.27,29.65,18.04.7,26.04-4.41,26.04-7.61v-17.58c0-1.75,1.01-1.88,2.24-1.88s1.9-4.01.57-4.01-7.48.27-14.11.3-7.99-.33-7.99,1.63.06,2.29,2.29,2.29,5.67-.3,5.67,3.5v12.31c0,.93-.41,1.81-1.13,2.4-3.6,2.92-10.93,3.71-17.24,1.51-7.08-2.47-13.04-12.47-13.04-26.22s8.19-23.89,19.29-23.89c10.5,0,17.12,5.45,18.86,11.31.18.61.74,1.02,1.38,1.02Z"/>
        <path class="cls-16" d="M297.55,309.36c-1.2,2.75-2.64,5.12-4.41,6.92-1.33,1.34-3.17,2.04-5.05,2.04h-16.32v-47.38c0-2.51,2.04-4.55,4.55-4.55h0c.52,0,.93-.42.93-.93v-1.6c0-.52-.42-.93-.93-.93h-21.62c-.52,0-.93.42-.93.93v1.6c0,.52.42.93.93.93h0c3.24,0,5.87,2.63,5.87,5.87v42.4c0,3.03-2.46,5.48-5.48,5.48h0c-.87,0-1.58.71-1.58,1.58v1.86c0,.87.71,1.58,1.58,1.58h39.95c1.34,0,2.55-.74,3.2-1.91,1.87-3.37,2.81-7.75,3.29-12.63.06-.65-.29-1.26-.88-1.54l-1.04-.49c-.78-.36-1.71-.02-2.05.77Z"/>
        <path class="cls-16" d="M353.93,309.55c-.69,1.38-1.41,2.71-2.18,3.95-1.84,2.99-5.12,4.79-8.63,4.79h-14.68c-.43,0-.78-.35-.78-.78v-21.85h11.27c2.55,0,4.63,2.08,4.63,4.63v.02c0,.77.63,1.4,1.4,1.4h.7c.77,0,1.4-.63,1.4-1.4v-13.69c0-.77-.63-1.4-1.4-1.4h-.7c-.77,0-1.4.63-1.4,1.4h0c0,2.08-1.69,3.77-3.77,3.77h-12.13v-22.22h14.06c3.2,0,6.11,1.97,7.2,4.98.21.58.39,1.17.55,1.79.19.74.86,1.26,1.63,1.26h.66c1.14,0,1.94-.94,1.77-1.96l-1.67-10.12c-.11-.69-.71-1.19-1.41-1.19h-40.11v3.55h0c3.18,0,5.76,2.58,5.76,5.76v44.04c0,2.54-2.06,4.61-4.61,4.61h0c-.94,0-1.71.76-1.71,1.71v.86c0,.94.76,1.71,1.71,1.71h39.41c2.03,0,3.83-1.35,4.36-3.3,1.02-3.72,1.7-7.51,2-11.38.06-.76-.4-1.48-1.11-1.76h0c-.84-.34-1.81.02-2.22.84Z"/>
      </g>
    </g>
  </g>
</svg>